<?xml version="1.0" standalone="no"?>
<svg xmlns="http://www.w3.org/2000/svg" width="179.2" height="179.2">
	<path
		d="M146.8 38q2.8 2.8 4.8 7.6t2 8.8v115.2q0 4-2.8 6.8t-6.8 2.8H9.6q-4 0-6.8-2.8T0 169.6V9.6q0-4 2.8-6.8T9.6 0h89.6q4 0 8.8 2t7.6 4.8zm-44.4-24.4v37.6H140q-1-2.9-2.2-4.1l-31.3-31.3q-1.2-1.2-4.1-2.2zm38.4 152.8V64H99.2q-4 0-6.8-2.8t-2.8-6.8V12.8H12.8v153.6h128zm-51.4-59.3q3.3 2.6 8.4 5.6 5.9-.7 11.7-.7 14.7 0 17.7 4.9 1.6 2.2.2 5.2 0 .1-.1.2l-.2.2v.1q-.6 3.8-7.1 3.8-4.8 0-11.5-2t-13-5.3q-22.1 2.4-39.2 8.3-15.3 26.2-24.2 26.2-1.5 0-2.8-.7l-2.4-1.2q-.1-.1-.6-.5-1-1-.6-3.6.9-4 5.6-9.15t13.2-9.65q1.4-.9 2.3.6.2.2.2.4 5.2-8.5 10.7-19.7 6.8-13.6 10.4-26.2-2.4-8.2-3.05-15.95t.65-12.75q1.1-4 4.2-4h2.2q2.3 0 3.5 1.5 1.8 2.1.9 6.8-.2.6-.4.8.1.3.1.8v3q-.2 12.3-1.4 19.2 5.5 16.4 14.6 23.8zm-57.6 41.1q5.2-2.4 13.7-15.8-5.1 4-8.75 8.4t-4.95 7.4zm39.8-92q-1.5 4.2-.2 13.2.1-.7.7-4.4 0-.3.7-4.3.1-.4.4-.8-.1-.1-.1-.2t-.05-.15-.05-.15q-.1-2.2-1.3-3.6 0 .1-.1.2v.2zm-12.4 66.1q13.5-5.4 28.4-8.1-.2-.1-1.3-.95t-1.6-1.35q-7.6-6.7-12.7-17.6-2.7 8.6-8.3 19.7-3 5.6-4.5 8.3zm64.6-1.6q-2.4-2.4-14-2.4 7.6 2.8 12.4 2.8 1.4 0 1.8-.1 0-.1-.2-.3z"
	/>
</svg>
