<?xml version="1.0" standalone="no"?>
<svg xmlns="http://www.w3.org/2000/svg" width="179.2" height="179.2">
	<path
		d="M146.8 38q2.8 2.8 4.8 7.6t2 8.8v115.2q0 4-2.8 6.8t-6.8 2.8H9.6q-4 0-6.8-2.8T0 169.6V9.6q0-4 2.8-6.8T9.6 0h89.6q4 0 8.8 2t7.6 4.8zm-44.4-24.4v37.6H140q-1-2.9-2.2-4.1l-31.3-31.3q-1.2-1.2-4.1-2.2zm38.4 152.8V64H99.2q-4 0-6.8-2.8t-2.8-6.8V12.8H12.8v153.6h128zM42.9 143v10.6H71V143h-7.5l10.3-16.1q.5-.7 1-1.65t.75-1.35.35-.4h.2q.1.4.5 1 .2.4.45.75t.6.8.65.85L89 143h-7.6v10.6h29.1V143h-6.8l-19.2-27.3L104 87.5h6.7V76.8H82.8v10.7h7.4l-10.3 15.9q-.4.7-1 1.65t-.9 1.35l-.2.3h-.2q-.1-.4-.5-1-.6-1.1-1.7-2.3L64.8 87.5h7.6V76.8h-29v10.7h6.8l18.9 27.2L49.7 143h-6.8z"
	/>
</svg>
