<?xml version="1.0" standalone="no"?>
<svg xmlns="http://www.w3.org/2000/svg" width="179.2" height="179.2">
	<path
		d="M146.8 38q2.8 2.8 4.8 7.6t2 8.8v115.2q0 4-2.8 6.8t-6.8 2.8H9.6q-4 0-6.8-2.8T0 169.6V9.6q0-4 2.8-6.8T9.6 0h89.6q4 0 8.8 2t7.6 4.8zm-44.4-24.4v37.6H140q-1-2.9-2.2-4.1l-31.3-31.3q-1.2-1.2-4.1-2.2zm38.4 152.8V64H99.2q-4 0-6.8-2.8t-2.8-6.8V12.8H12.8v153.6h128zM23.3 76.8v10.7h7l16.4 66.1h15.9l12.8-48.5q.7-2 1-4.6.2-1.6.2-2.4h.4l.3 2.4q.1.3.35 2t.55 2.6L91 153.6h15.9l16.4-66.1h7V76.8h-30v10.7h9l-9.9 43.8q-.5 2-.7 4.6l-.2 2.1h-.4l-.3-2.1q-.1-.5-.4-2.1t-.5-2.5L82.5 76.8H71.1l-14.4 54.5q-.2.9-.45 2.45t-.35 2.15l-.4 2.1h-.4l-.2-2.1q-.2-2.6-.7-4.6l-9.9-43.8h9V76.8h-30z"
	/>
</svg>
