<?xml version="1.0" standalone="no"?>
<svg xmlns="http://www.w3.org/2000/svg" width="179.2" height="179.2">
	<path
		d="M64 38.4V25.6H51.2v12.8H64zm12.8 12.8V38.4H64v12.8h12.8zM64 64V51.2H51.2V64H64zm12.8 12.8V64H64v12.8h12.8zm70-38.8q2.8 2.8 4.8 7.6t2 8.8v115.2q0 4-2.8 6.8t-6.8 2.8H9.6q-4 0-6.8-2.8T0 169.6V9.6q0-4 2.8-6.8T9.6 0h89.6q4 0 8.8 2t7.6 4.8zm-44.4-24.4v37.6H140q-1-2.9-2.2-4.1l-31.3-31.3q-1.2-1.2-4.1-2.2zm38.4 152.8V64H99.2q-4 0-6.8-2.8t-2.8-6.8V12.8H76.8v12.8H64V12.8H12.8v153.6h128zM78.1 94.3l10.7 34.9q.8 2.7.8 5.2 0 8.3-7.25 13.75T64 153.6t-18.35-5.45-7.25-13.75q0-2.5.8-5.2 2.1-6.3 12-39.6V76.8H64v12.8h7.9q2.2 0 3.9 1.3t2.3 3.4zM64 140.8q5.3 0 9.05-1.9t3.75-4.5-3.75-4.5T64 128t-9.05 1.9-3.75 4.5 3.75 4.5 9.05 1.9z"
	/>
</svg>
