<?xml version="1.0" standalone="no"?>
<svg xmlns="http://www.w3.org/2000/svg" width="179.2" height="179.2">
	<path
		d="M146.8 38q2.8 2.8 4.8 7.6t2 8.8v115.2q0 4-2.8 6.8t-6.8 2.8H9.6q-4 0-6.8-2.8T0 169.6V9.6q0-4 2.8-6.8T9.6 0h89.6q4 0 8.8 2t7.6 4.8zm-44.4-24.4v37.6H140q-1-2.9-2.2-4.1l-31.3-31.3q-1.2-1.2-4.1-2.2zm38.4 152.8V64H99.2q-4 0-6.8-2.8t-2.8-6.8V12.8H12.8v153.6h128zM62 85q2 .8 2 3v54.4q0 2.2-2 3-.8.2-1.2.2-1.2 0-2.3-.9L41.9 128H28.8q-1.4 0-2.3-.9t-.9-2.3v-19.2q0-1.4.9-2.3t2.3-.9h13.1l16.6-16.7q1.6-1.5 3.5-.7zm41.7 68.9q3.1 0 5-2.4 12.9-15.9 12.9-36.3t-12.9-36.3q-1.6-2.1-4.3-2.4t-4.7 1.4q-2.1 1.7-2.35 4.35T98.8 87q10 12.3 10 28.2t-10 28.2q-1.7 2.1-1.45 4.75t2.35 4.25q1.8 1.5 4 1.5zm-21.1-14.8q2.7 0 4.7-2 8.7-9.3 8.7-21.9t-8.7-21.9q-1.8-1.9-4.5-2T78.2 93t-2 4.45 1.8 4.65q5.2 5.7 5.2 13.1T78 128.3q-1.9 2-1.8 4.65t2 4.45q2 1.7 4.4 1.7z"
	/>
</svg>
