<?xml version="1.0" standalone="no"?>
<svg xmlns="http://www.w3.org/2000/svg" width="179.2" height="179.2">
	<path
		d="M146.8 38q2.8 2.8 4.8 7.6t2 8.8v115.2q0 4-2.8 6.8t-6.8 2.8H9.6q-4 0-6.8-2.8T0 169.6V9.6q0-4 2.8-6.8T9.6 0h89.6q4 0 8.8 2t7.6 4.8zm-44.4-24.4v37.6H140q-1-2.9-2.2-4.1l-31.3-31.3q-1.2-1.2-4.1-2.2zm38.4 152.8V64H99.2q-4 0-6.8-2.8t-2.8-6.8V12.8H12.8v153.6h128zM48 76.8q.8-1.1 2.1-1.25t2.4.65l5.1 3.8q1.1.8 1.25 2.1t-.65 2.4L40 108.8l18.2 24.3q.8 1.1.65 2.4t-1.25 2.1l-5.1 3.8q-1.1.8-2.4.65T48 140.8l-22.6-30.1q-1.4-1.9 0-3.8zm80.2 30.1q1.4 1.9 0 3.8l-22.6 30.1q-.8 1.1-2.1 1.25t-2.4-.65l-5.1-3.8q-1.1-.8-1.25-2.1t.65-2.4l18.2-24.3-18.2-24.3q-.8-1.1-.65-2.4T96 80l5.1-3.8q1.1-.8 2.4-.65t2.1 1.25zm-62 46.1q-1.3-.2-2.05-1.3t-.55-2.4l13.8-83.1q.2-1.3 1.3-2.05t2.4-.55l6.3 1q1.3.2 2.05 1.3t.55 2.4l-13.8 83.1q-.2 1.3-1.3 2.05t-2.4.55z"
	/>
</svg>
