<?xml version="1.0" standalone="no"?>
<svg xmlns="http://www.w3.org/2000/svg" width="179.2" height="179.2">
	<path
		d="M146.8 38q2.8 2.8 4.8 7.6t2 8.8v115.2q0 4-2.8 6.8t-6.8 2.8H9.6q-4 0-6.8-2.8T0 169.6V9.6q0-4 2.8-6.8T9.6 0h89.6q4 0 8.8 2t7.6 4.8zm-44.4-24.4v37.6H140q-1-2.9-2.2-4.1l-31.3-31.3q-1.2-1.2-4.1-2.2zm38.4 152.8V64H99.2q-4 0-6.8-2.8t-2.8-6.8V12.8H12.8v153.6h128zM128 121.6v32H25.6v-19.2l19.2-19.2L57.6 128 96 89.6zm-83.2-19.2q-8 0-13.6-5.6t-5.6-13.6 5.6-13.6T44.8 64t13.6 5.6T64 83.2t-5.6 13.6-13.6 5.6z"
	/>
</svg>
