<?xml version="1.0" standalone="no"?>
<svg xmlns="http://www.w3.org/2000/svg" width="179.2" height="179.2">
	<path
		d="M146.8 38q2.8 2.8 4.8 7.6t2 8.8v115.2q0 4-2.8 6.8t-6.8 2.8H9.6q-4 0-6.8-2.8T0 169.6V9.6q0-4 2.8-6.8T9.6 0h89.6q4 0 8.8 2t7.6 4.8zm-44.4-24.4v37.6H140q-1-2.9-2.2-4.1l-31.3-31.3q-1.2-1.2-4.1-2.2zm38.4 152.8V64H99.2q-4 0-6.8-2.8t-2.8-6.8V12.8H12.8v153.6h128zM41.6 143v10.6h32.7V143H65v-16.7h13.7q7.6 0 11.8-1.5 6.7-2.3 10.65-8.7t3.95-14.6q0-8.1-3.7-14.1t-10-8.7q-4.8-1.9-13-1.9H41.6v10.7h9.2V143h-9.2zm35.3-28H65V88.2h12q5.2 0 8.3 1.8 5.6 3.3 5.6 11.5 0 8.9-6.2 12-3.1 1.5-7.8 1.5z"
	/>
</svg>
