<?xml version="1.0" standalone="no"?>
<svg xmlns="http://www.w3.org/2000/svg" width="179.2" height="179.2">
	<path
		d="M146.8 38q2.8 2.8 4.8 7.6t2 8.8v115.2q0 4-2.8 6.8t-6.8 2.8H9.6q-4 0-6.8-2.8T0 169.6V9.6q0-4 2.8-6.8T9.6 0h89.6q4 0 8.8 2t7.6 4.8zm-44.4-24.4v37.6H140q-1-2.9-2.2-4.1l-31.3-31.3q-1.2-1.2-4.1-2.2zm38.4 152.8V64H99.2q-4 0-6.8-2.8t-2.8-6.8V12.8H12.8v153.6h128zm-64-89.6q5.2 0 9 3.8t3.8 9V128q0 5.2-3.8 9t-9 3.8H38.4q-5.2 0-9-3.8t-3.8-9V89.6q0-5.2 3.8-9t9-3.8h38.4zm49.2.2q2 .8 2 3v57.6q0 2.2-2 3-.8.2-1.2.2-1.4 0-2.3-.9L96 113.3v-9l26.5-26.6q.9-.9 2.3-.9.4 0 1.2.2z"
	/>
</svg>
